<?xml version="1.0" encoding="UTF-8" standalone="no"?>
<svg width="9px" height="7px" viewBox="0 0 9 7" version="1.1" xmlns="http://www.w3.org/2000/svg" xmlns:xlink="http://www.w3.org/1999/xlink" xmlns:sketch="http://www.bohemiancoding.com/sketch/ns">
    <!-- Generator: Sketch 3.3.2 (12043) - http://www.bohemiancoding.com/sketch -->
    <title>Fill 394 Copy</title>
    <desc>Created with Sketch.</desc>
    <defs></defs>
    <g id="New-Header" stroke="none" stroke-width="1" fill="none" fill-rule="evenodd" sketch:type="MSPage">
        <g id="Artboard-1-Copy-4" sketch:type="MSArtboardGroup" transform="translate(-430.000000, -175.000000)" fill="#F58321">
            <g id="salon-+-Fill-394-Copy" sketch:type="MSLayerGroup" transform="translate(387.000000, 167.000000)">
                <path d="M51.9345911,9.11524266 L50.9663348,8.28536232 C50.9284596,8.25311211 50.8797093,8.23961203 50.8294589,8.24111204 C50.7799586,8.24486206 50.7338333,8.26848721 50.7015831,8.30673746 L47.4990625,12.0758867 L44.2987919,8.30673746 C44.2661667,8.26848721 44.2200414,8.24486206 44.1705411,8.24111204 C44.1221658,8.23998703 44.0715404,8.25311211 44.0336652,8.28536232 L43.0654089,9.11524266 C43.0275337,9.14786787 43.0039086,9.19399317 43.0005335,9.24386849 C42.9967835,9.29374381 43.0129086,9.34286913 43.0455338,9.38036937 L47.3573116,14.3630264 C47.3929368,14.4039017 47.4446871,14.4279019 47.4990625,14.4279019 C47.5534378,14.4279019 47.6055632,14.4039017 47.6408134,14.3630264 L51.9544662,9.38036937 C51.9870914,9.34286913 52.0032165,9.29374381 51.9994665,9.24386849 C51.9960914,9.19399317 51.9724663,9.14786787 51.9345911,9.11524266" id="Fill-394-Copy" sketch:type="MSShapeGroup"></path>
            </g>
        </g>
    </g>
</svg>