<?xml version="1.0" encoding="UTF-8" standalone="no"?>
<svg width="162px" height="55px" viewBox="0 0 162 55" version="1.1" xmlns="http://www.w3.org/2000/svg" xmlns:xlink="http://www.w3.org/1999/xlink" xmlns:sketch="http://www.bohemiancoding.com/sketch/ns">
    <!-- Generator: Sketch 3.3.2 (12043) - http://www.bohemiancoding.com/sketch -->
    <title>Imported Layers</title>
    <desc>Created with Sketch.</desc>
    <defs></defs>
    <g id="New-Header" stroke="none" stroke-width="1" fill="none" fill-rule="evenodd" sketch:type="MSPage">
        <g id="Artboard-1-Copy-4" sketch:type="MSArtboardGroup" transform="translate(-59.000000, -133.000000)">
            <g id="Imported-Layers" sketch:type="MSLayerGroup" transform="translate(59.000000, 133.000000)">
                <path d="M111.269127,46.0405325 C111.269127,46.492574 111.211855,46.9276923 111.093709,47.3465385 C110.977527,47.7653846 110.811927,48.1559172 110.596909,48.518787 C110.3796,48.8816568 110.124,49.2110059 109.823891,49.5097633 C109.523455,49.8081953 109.190945,50.0649704 108.827345,50.2768343 C108.459818,50.4916272 108.069709,50.657929 107.650145,50.7741124 C107.230255,50.8909467 106.795309,50.9469231 106.341055,50.9469231 C105.889091,50.9469231 105.4512,50.8909467 105.031636,50.7741124 C104.614691,50.657929 104.221964,50.4916272 103.857055,50.2768343 C103.490836,50.0649704 103.158,49.8081953 102.8592,49.5097633 C102.5604,49.2110059 102.303491,48.8816568 102.091745,48.518787 C101.875418,48.1559172 101.712764,47.7653846 101.594945,47.3465385 C101.478436,46.9276923 101.419527,46.492574 101.419527,46.0405325 C101.419527,45.6721302 101.460436,45.3160947 101.538982,44.9688462 C101.620145,44.6212722 101.731091,44.2906213 101.875418,43.976568 C102.021382,43.6625148 102.195491,43.3696154 102.402982,43.0975444 C102.607855,42.8254734 102.838255,42.5768343 103.090909,42.3539053 L103.090909,39.3923669 C103.090909,39.3282544 103.113164,39.2755325 103.162582,39.2364793 C103.2084,39.1971006 103.261745,39.177574 103.322291,39.177574 C103.388073,39.177574 103.440109,39.1997041 103.475455,39.2446154 C103.516036,39.2878994 103.533055,39.336716 103.533055,39.3923669 L103.533055,42.0105621 C103.929709,41.7326331 104.366291,41.5152367 104.842145,41.3573964 C105.318,41.203787 105.818727,41.1256805 106.341055,41.1256805 C106.795309,41.1256805 107.230255,41.1842604 107.650145,41.2984911 C108.069709,41.4159763 108.459818,41.5806509 108.827345,41.7954438 C109.190945,42.0089349 109.523455,42.2644083 109.823891,42.5628402 C110.124,42.8615976 110.3796,43.1909467 110.596909,43.5580473 C110.811927,43.9222189 110.977527,44.3156805 111.093709,44.7342012 C111.211855,45.1530473 111.269127,45.5881657 111.269127,46.0405325 L111.269127,46.0405325 Z M110.826,46.0405325 C110.826,45.6259172 110.773964,45.2285503 110.665964,44.8487574 C110.558945,44.4705917 110.407418,44.1148817 110.214,43.7826036 C110.017309,43.4490237 109.784618,43.1463609 109.511018,42.8726627 C109.237091,42.6018935 108.934036,42.3688757 108.601527,42.1752367 C108.269018,41.982574 107.912291,41.8331953 107.532,41.7257988 C107.152036,41.6167751 106.753418,41.565355 106.341055,41.565355 C105.804982,41.565355 105.296727,41.6528994 104.822509,41.8289645 C104.345345,42.0076331 103.918582,42.2504142 103.533055,42.5547041 L103.533055,46.5570118 C103.533055,46.622426 103.508836,46.6738462 103.464327,46.7145266 C103.416218,46.7519527 103.364509,46.7731065 103.306909,46.7731065 C103.242436,46.7731065 103.189091,46.7519527 103.149818,46.7102959 C103.112182,46.6683136 103.090909,46.6181953 103.090909,46.5570118 L103.090909,42.9536982 C102.707673,43.3582249 102.404618,43.8216568 102.185673,44.3465976 C101.965091,44.8708876 101.856109,45.4345562 101.856109,46.0405325 C101.856109,46.4479882 101.909455,46.8443787 102.017455,47.2264497 C102.125455,47.6088462 102.276982,47.9661834 102.4704,48.2955325 C102.664145,48.6248817 102.897164,48.9262426 103.170764,49.1970118 C103.444364,49.4648521 103.747745,49.696568 104.079927,49.8892308 C104.412764,50.084497 104.7708,50.2351775 105.150764,50.3399704 C105.532691,50.4473669 105.931309,50.5033432 106.341055,50.5033432 C106.753418,50.5033432 107.152036,50.4473669 107.532,50.3399704 C107.912291,50.2351775 108.269018,50.084497 108.601527,49.8892308 C108.934036,49.696568 109.237091,49.4648521 109.511018,49.1970118 C109.784618,48.9262426 110.017309,48.6248817 110.214,48.2955325 C110.407418,47.9661834 110.558945,47.6088462 110.665964,47.2264497 C110.773964,46.8443787 110.826,46.4479882 110.826,46.0405325 L110.826,46.0405325 Z" id="Fill-1" fill="#836642" sketch:type="MSShapeGroup"></path>
                <path d="M111.269127,46.0405325 C111.269127,46.492574 111.211855,46.9276923 111.093709,47.3465385 C110.977527,47.7653846 110.811927,48.1559172 110.596909,48.518787 C110.3796,48.8816568 110.124,49.2110059 109.823891,49.5097633 C109.523455,49.8081953 109.190945,50.0649704 108.827345,50.2768343 C108.459818,50.4916272 108.069709,50.657929 107.650145,50.7741124 C107.230255,50.8909467 106.795309,50.9469231 106.341055,50.9469231 C105.889091,50.9469231 105.4512,50.8909467 105.031636,50.7741124 C104.614691,50.657929 104.221964,50.4916272 103.857055,50.2768343 C103.490836,50.0649704 103.158,49.8081953 102.8592,49.5097633 C102.5604,49.2110059 102.303491,48.8816568 102.091745,48.518787 C101.875418,48.1559172 101.712764,47.7653846 101.594945,47.3465385 C101.478436,46.9276923 101.419527,46.492574 101.419527,46.0405325 C101.419527,45.6721302 101.460436,45.3160947 101.538982,44.9688462 C101.620145,44.6212722 101.731091,44.2906213 101.875418,43.976568 C102.021382,43.6625148 102.195491,43.3696154 102.402982,43.0975444 C102.607855,42.8254734 102.838255,42.5768343 103.090909,42.3539053 L103.090909,39.3923669 C103.090909,39.3282544 103.113164,39.2755325 103.162582,39.2364793 C103.2084,39.1971006 103.261745,39.177574 103.322291,39.177574 C103.388073,39.177574 103.440109,39.1997041 103.475455,39.2446154 C103.516036,39.2878994 103.533055,39.336716 103.533055,39.3923669 L103.533055,42.0105621 C103.929709,41.7326331 104.366291,41.5152367 104.842145,41.3573964 C105.318,41.203787 105.818727,41.1256805 106.341055,41.1256805 C106.795309,41.1256805 107.230255,41.1842604 107.650145,41.2984911 C108.069709,41.4159763 108.459818,41.5806509 108.827345,41.7954438 C109.190945,42.0089349 109.523455,42.2644083 109.823891,42.5628402 C110.124,42.8615976 110.3796,43.1909467 110.596909,43.5580473 C110.811927,43.9222189 110.977527,44.3156805 111.093709,44.7342012 C111.211855,45.1530473 111.269127,45.5881657 111.269127,46.0405325 L111.269127,46.0405325 Z M110.826,46.0405325 C110.826,45.6259172 110.773964,45.2285503 110.665964,44.8487574 C110.558945,44.4705917 110.407418,44.1148817 110.214,43.7826036 C110.017309,43.4490237 109.784618,43.1463609 109.511018,42.8726627 C109.237091,42.6018935 108.934036,42.3688757 108.601527,42.1752367 C108.269018,41.982574 107.912291,41.8331953 107.532,41.7257988 C107.152036,41.6167751 106.753418,41.565355 106.341055,41.565355 C105.804982,41.565355 105.296727,41.6528994 104.822509,41.8289645 C104.345345,42.0076331 103.918582,42.2504142 103.533055,42.5547041 L103.533055,46.5570118 C103.533055,46.622426 103.508836,46.6738462 103.464327,46.7145266 C103.416218,46.7519527 103.364509,46.7731065 103.306909,46.7731065 C103.242436,46.7731065 103.189091,46.7519527 103.149818,46.7102959 C103.112182,46.6683136 103.090909,46.6181953 103.090909,46.5570118 L103.090909,42.9536982 C102.707673,43.3582249 102.404618,43.8216568 102.185673,44.3465976 C101.965091,44.8708876 101.856109,45.4345562 101.856109,46.0405325 C101.856109,46.4479882 101.909455,46.8443787 102.017455,47.2264497 C102.125455,47.6088462 102.276982,47.9661834 102.4704,48.2955325 C102.664145,48.6248817 102.897164,48.9262426 103.170764,49.1970118 C103.444364,49.4648521 103.747745,49.696568 104.079927,49.8892308 C104.412764,50.084497 104.7708,50.2351775 105.150764,50.3399704 C105.532691,50.4473669 105.931309,50.5033432 106.341055,50.5033432 C106.753418,50.5033432 107.152036,50.4473669 107.532,50.3399704 C107.912291,50.2351775 108.269018,50.084497 108.601527,49.8892308 C108.934036,49.696568 109.237091,49.4648521 109.511018,49.1970118 C109.784618,48.9262426 110.017309,48.6248817 110.214,48.2955325 C110.407418,47.9661834 110.558945,47.6088462 110.665964,47.2264497 C110.773964,46.8443787 110.826,46.4479882 110.826,46.0405325 L110.826,46.0405325 Z" id="Stroke-2" stroke="#836642" stroke-width="0.047" sketch:type="MSShapeGroup"></path>
                <path d="M115.644764,46.1157101 C115.580291,46.1157101 115.526945,46.0948817 115.487673,46.0515976 C115.446764,46.0096154 115.428436,45.959497 115.428436,45.9038462 C115.428436,45.8397337 115.446764,45.7892899 115.487673,45.7502367 C115.526945,45.7095562 115.580291,45.6913314 115.644764,45.6913314 L122.435018,45.6913314 C122.3892,45.1152959 122.237345,44.5796154 121.988945,44.0758284 C121.737927,43.5749704 121.412291,43.1378994 121.012364,42.769497 C120.615382,42.4010947 120.1536,42.109497 119.629964,41.8986095 C119.107964,41.6867456 118.553891,41.5777219 117.962836,41.5777219 C117.3456,41.5777219 116.761745,41.6948817 116.217164,41.9265976 C115.672582,42.1612426 115.195418,42.4792012 114.791564,42.8840533 C114.387382,43.2902071 114.067309,43.7630769 113.830364,44.3046154 C113.594727,44.8432249 113.474945,45.4205621 113.474945,46.0363018 C113.474945,46.4505917 113.528618,46.848284 113.636618,47.2264497 C113.746255,47.6088462 113.896473,47.9619527 114.0912,48.292929 C114.284945,48.6232544 114.519273,48.9262426 114.791564,49.1970118 C115.066473,49.4703846 115.369855,49.7037278 115.700727,49.8973669 C116.034873,50.0900296 116.389964,50.2394083 116.7732,50.3438757 C117.1548,50.4486686 117.550473,50.5033432 117.962836,50.5033432 C118.528691,50.5033432 119.058873,50.4083136 119.554364,50.226716 C120.0456,50.0428402 120.490364,49.7772781 120.884727,49.4339349 C120.935127,49.3922781 120.991091,49.3727515 121.053273,49.381213 C121.113164,49.3867456 121.162582,49.410503 121.198909,49.4456509 C121.238182,49.4843787 121.258145,49.5318935 121.265018,49.5862426 C121.273527,49.6435207 121.249309,49.696568 121.198909,49.7466864 C120.763964,50.1235503 120.271418,50.4193787 119.719636,50.631568 C119.169818,50.8424556 118.586291,50.9469231 117.962836,50.9469231 C117.508255,50.9469231 117.072,50.8909467 116.652436,50.7741124 C116.234182,50.657929 115.842764,50.4945562 115.476545,50.2813905 C115.111636,50.0701775 114.780436,49.8140533 114.48,49.5178994 C114.179891,49.219142 113.924291,48.8871893 113.712545,48.521716 C113.497855,48.1559172 113.333564,47.7653846 113.215418,47.3465385 C113.099236,46.9276923 113.04,46.492574 113.04,46.0405325 C113.04,45.5881657 113.099236,45.1556509 113.215418,44.738432 C113.333564,44.3215385 113.497855,43.933284 113.712545,43.5733432 C113.924291,43.2104734 114.179891,42.8811243 114.48,42.5852959 C114.780436,42.2852367 115.111636,42.0300888 115.476545,41.8178994 C115.842764,41.6070118 116.234182,41.4439645 116.652436,41.3294083 C117.072,41.2122485 117.508255,41.1536686 117.962836,41.1536686 C118.417745,41.1536686 118.852691,41.2122485 119.270945,41.3294083 C119.690509,41.4439645 120.081927,41.6086391 120.448145,41.823432 C120.811745,42.0382249 121.145564,42.295 121.443055,42.5950592 C121.7448,42.8951183 122.001709,43.23 122.2164,43.5954734 C122.434036,43.9638757 122.596691,44.3605917 122.714509,44.7843195 C122.832327,45.2073964 122.891564,45.6509763 122.891564,46.1157101 L115.644764,46.1157101" id="Fill-3" fill="#836642" sketch:type="MSShapeGroup"></path>
                <path d="M115.644764,46.1157101 C115.580291,46.1157101 115.526945,46.0948817 115.487673,46.0515976 C115.446764,46.0096154 115.428436,45.959497 115.428436,45.9038462 C115.428436,45.8397337 115.446764,45.7892899 115.487673,45.7502367 C115.526945,45.7095562 115.580291,45.6913314 115.644764,45.6913314 L122.435018,45.6913314 C122.3892,45.1152959 122.237345,44.5796154 121.988945,44.0758284 C121.737927,43.5749704 121.412291,43.1378994 121.012364,42.769497 C120.615382,42.4010947 120.1536,42.109497 119.629964,41.8986095 C119.107964,41.6867456 118.553891,41.5777219 117.962836,41.5777219 C117.3456,41.5777219 116.761745,41.6948817 116.217164,41.9265976 C115.672582,42.1612426 115.195418,42.4792012 114.791564,42.8840533 C114.387382,43.2902071 114.067309,43.7630769 113.830364,44.3046154 C113.594727,44.8432249 113.474945,45.4205621 113.474945,46.0363018 C113.474945,46.4505917 113.528618,46.848284 113.636618,47.2264497 C113.746255,47.6088462 113.896473,47.9619527 114.0912,48.292929 C114.284945,48.6232544 114.519273,48.9262426 114.791564,49.1970118 C115.066473,49.4703846 115.369855,49.7037278 115.700727,49.8973669 C116.034873,50.0900296 116.389964,50.2394083 116.7732,50.3438757 C117.1548,50.4486686 117.550473,50.5033432 117.962836,50.5033432 C118.528691,50.5033432 119.058873,50.4083136 119.554364,50.226716 C120.0456,50.0428402 120.490364,49.7772781 120.884727,49.4339349 C120.935127,49.3922781 120.991091,49.3727515 121.053273,49.381213 C121.113164,49.3867456 121.162582,49.410503 121.198909,49.4456509 C121.238182,49.4843787 121.258145,49.5318935 121.265018,49.5862426 C121.273527,49.6435207 121.249309,49.696568 121.198909,49.7466864 C120.763964,50.1235503 120.271418,50.4193787 119.719636,50.631568 C119.169818,50.8424556 118.586291,50.9469231 117.962836,50.9469231 C117.508255,50.9469231 117.072,50.8909467 116.652436,50.7741124 C116.234182,50.657929 115.842764,50.4945562 115.476545,50.2813905 C115.111636,50.0701775 114.780436,49.8140533 114.48,49.5178994 C114.179891,49.219142 113.924291,48.8871893 113.712545,48.521716 C113.497855,48.1559172 113.333564,47.7653846 113.215418,47.3465385 C113.099236,46.9276923 113.04,46.492574 113.04,46.0405325 C113.04,45.5881657 113.099236,45.1556509 113.215418,44.738432 C113.333564,44.3215385 113.497855,43.933284 113.712545,43.5733432 C113.924291,43.2104734 114.179891,42.8811243 114.48,42.5852959 C114.780436,42.2852367 115.111636,42.0300888 115.476545,41.8178994 C115.842764,41.6070118 116.234182,41.4439645 116.652436,41.3294083 C117.072,41.2122485 117.508255,41.1536686 117.962836,41.1536686 C118.417745,41.1536686 118.852691,41.2122485 119.270945,41.3294083 C119.690509,41.4439645 120.081927,41.6086391 120.448145,41.823432 C120.811745,42.0382249 121.145564,42.295 121.443055,42.5950592 C121.7448,42.8951183 122.001709,43.23 122.2164,43.5954734 C122.434036,43.9638757 122.596691,44.3605917 122.714509,44.7843195 C122.832327,45.2073964 122.891564,45.6509763 122.891564,46.1157101 L115.644764,46.1157101 L115.644764,46.1157101 Z" id="Stroke-4" stroke="#836642" stroke-width="0.047" sketch:type="MSShapeGroup"></path>
                <path d="M135.293891,54.0054438 C135.250364,54.0422189 135.200945,54.0614201 135.1476,54.0614201 C135.081818,54.0614201 135.030109,54.0422189 134.9892,54.0054438 C134.948618,53.9693195 134.930291,53.9192012 134.930291,53.8524852 L134.930291,49.3353254 C134.785964,49.5820118 134.611527,49.8052663 134.412545,50.0089941 C134.214873,50.2127219 133.991345,50.3832544 133.7472,50.5254734 C133.500436,50.6663905 133.237964,50.7793195 132.955855,50.8577515 C132.675055,50.935858 132.383455,50.976213 132.077455,50.976213 C131.622873,50.976213 131.199055,50.8909467 130.800436,50.7181361 C130.401818,50.5446746 130.055236,50.3106805 129.759055,50.0119231 C129.458618,49.7131657 129.2256,49.3646154 129.054764,48.9623669 C128.884909,48.5607692 128.8008,48.130858 128.8008,47.6729586 L128.8008,41.3557692 C128.8008,41.2887278 128.821745,41.2386095 128.866582,41.1982544 C128.910436,41.1592012 128.960836,41.1380473 129.018436,41.1380473 C129.082909,41.1380473 129.135927,41.1592012 129.1752,41.2011834 C129.213164,41.2428402 129.234436,41.2958876 129.234436,41.3557692 L129.234436,47.6729586 C129.234436,48.0693491 129.310036,48.4406805 129.458618,48.790858 C129.608836,49.1410355 129.8124,49.4440237 130.070618,49.7021006 C130.328836,49.9618047 130.627964,50.1642308 130.972909,50.313284 C131.318182,50.4613609 131.6844,50.5365385 132.077455,50.5365385 C132.471491,50.5365385 132.841964,50.4613609 133.187236,50.313284 C133.534145,50.1642308 133.835564,49.9618047 134.095091,49.7021006 C134.350691,49.4440237 134.552945,49.1410355 134.704473,48.790858 C134.854691,48.4406805 134.930291,48.0693491 134.930291,47.6729586 L134.930291,41.3684615 C134.930291,41.2958876 134.951564,41.2386095 134.993782,41.1982544 C135.035345,41.1592012 135.086073,41.1380473 135.1476,41.1380473 C135.212073,41.1380473 135.2628,41.1618047 135.300764,41.2050888 C135.338727,41.2483728 135.358364,41.3043491 135.358364,41.3684615 L135.358364,53.8524852 C135.358364,53.9192012 135.335782,53.9693195 135.293891,54.0054438" id="Fill-5" fill="#836642" sketch:type="MSShapeGroup"></path>
                <path d="M135.293891,54.0054438 C135.250364,54.0422189 135.200945,54.0614201 135.1476,54.0614201 C135.081818,54.0614201 135.030109,54.0422189 134.9892,54.0054438 C134.948618,53.9693195 134.930291,53.9192012 134.930291,53.8524852 L134.930291,49.3353254 C134.785964,49.5820118 134.611527,49.8052663 134.412545,50.0089941 C134.214873,50.2127219 133.991345,50.3832544 133.7472,50.5254734 C133.500436,50.6663905 133.237964,50.7793195 132.955855,50.8577515 C132.675055,50.935858 132.383455,50.976213 132.077455,50.976213 C131.622873,50.976213 131.199055,50.8909467 130.800436,50.7181361 C130.401818,50.5446746 130.055236,50.3106805 129.759055,50.0119231 C129.458618,49.7131657 129.2256,49.3646154 129.054764,48.9623669 C128.884909,48.5607692 128.8008,48.130858 128.8008,47.6729586 L128.8008,41.3557692 C128.8008,41.2887278 128.821745,41.2386095 128.866582,41.1982544 C128.910436,41.1592012 128.960836,41.1380473 129.018436,41.1380473 C129.082909,41.1380473 129.135927,41.1592012 129.1752,41.2011834 C129.213164,41.2428402 129.234436,41.2958876 129.234436,41.3557692 L129.234436,47.6729586 C129.234436,48.0693491 129.310036,48.4406805 129.458618,48.790858 C129.608836,49.1410355 129.8124,49.4440237 130.070618,49.7021006 C130.328836,49.9618047 130.627964,50.1642308 130.972909,50.313284 C131.318182,50.4613609 131.6844,50.5365385 132.077455,50.5365385 C132.471491,50.5365385 132.841964,50.4613609 133.187236,50.313284 C133.534145,50.1642308 133.835564,49.9618047 134.095091,49.7021006 C134.350691,49.4440237 134.552945,49.1410355 134.704473,48.790858 C134.854691,48.4406805 134.930291,48.0693491 134.930291,47.6729586 L134.930291,41.3684615 C134.930291,41.2958876 134.951564,41.2386095 134.993782,41.1982544 C135.035345,41.1592012 135.086073,41.1380473 135.1476,41.1380473 C135.212073,41.1380473 135.2628,41.1618047 135.300764,41.2050888 C135.338727,41.2483728 135.358364,41.3043491 135.358364,41.3684615 L135.358364,53.8524852 C135.358364,53.9192012 135.335782,53.9693195 135.293891,54.0054438 L135.293891,54.0054438 Z" id="Stroke-6" stroke="#836642" stroke-width="0.047" sketch:type="MSShapeGroup"></path>
                <path d="M146.994218,46.0613609 C146.994218,46.5134024 146.935636,46.9475444 146.817491,47.3631361 C146.701309,47.7793787 146.534073,48.1699112 146.318073,48.5327811 C146.103382,48.8956509 145.8468,49.2263018 145.547673,49.523432 C145.245927,49.8208876 144.914727,50.0789645 144.550145,50.2908284 C144.183927,50.5056213 143.792182,50.6706213 143.373927,50.7877811 C142.954364,50.9049408 142.518109,50.9638462 142.0632,50.9638462 C141.611236,50.9638462 141.173345,50.9049408 140.755418,50.7877811 C140.335855,50.6706213 139.944109,50.5056213 139.577891,50.2908284 C139.214618,50.0789645 138.880473,49.8208876 138.582982,49.523432 C138.281236,49.2263018 138.024655,48.8956509 137.811273,48.5327811 C137.5992,48.1699112 137.434909,47.7793787 137.317418,47.3631361 C137.202218,46.9475444 137.143309,46.5134024 137.143309,46.0613609 C137.143309,45.6089941 137.202218,45.1751775 137.317418,44.7592604 C137.434909,44.3436686 137.5992,43.9528107 137.811273,43.5899408 C138.024655,43.227071 138.281236,42.8951183 138.582982,42.5992899 C138.880473,42.3005325 139.214618,42.0466864 139.577891,41.834497 C139.944109,41.6223077 140.335855,41.4579586 140.755418,41.3404734 C141.173345,41.2262426 141.611236,41.1673373 142.0632,41.1673373 C142.518109,41.1673373 142.954364,41.2262426 143.373927,41.3404734 C143.792182,41.4579586 144.183927,41.6223077 144.550145,41.834497 C144.914727,42.0466864 145.245927,42.3005325 145.547673,42.5992899 C145.8468,42.8951183 146.103382,43.227071 146.318073,43.5899408 C146.534073,43.9528107 146.701309,44.3436686 146.817491,44.7592604 C146.935636,45.1751775 146.994218,45.6089941 146.994218,46.0613609 L146.994218,46.0613609 Z M146.549782,46.0574556 C146.549782,45.647071 146.497745,45.2506805 146.389745,44.8708876 C146.281745,44.4871893 146.130218,44.1311538 145.934836,43.8008284 C145.741091,43.4698521 145.506764,43.1688166 145.2348,42.8980473 C144.959891,42.6298817 144.656509,42.3981657 144.325309,42.2028994 C143.991491,42.0105621 143.6364,41.8595562 143.256109,41.753787 C142.871564,41.6447633 142.475891,41.591716 142.0632,41.591716 C141.650509,41.591716 141.254836,41.6447633 140.874545,41.753787 C140.494255,41.8595562 140.134909,42.0105621 139.804036,42.2028994 C139.469891,42.3981657 139.166836,42.6298817 138.894545,42.8980473 C138.619636,43.1688166 138.386618,43.4698521 138.190255,43.8008284 C137.996509,44.1311538 137.8476,44.4871893 137.738291,44.8708876 C137.6316,45.2506805 137.575309,45.647071 137.575309,46.0574556 C137.575309,46.4675148 137.6316,46.8609763 137.738291,47.2417456 C137.8476,47.6199112 137.996509,47.9772485 138.190255,48.3069231 C138.386618,48.6388757 138.619636,48.9402367 138.894545,49.2139349 C139.166836,49.4843787 139.469891,49.7186982 139.804036,49.9113609 C140.134909,50.1053254 140.494255,50.2547041 140.874545,50.3607988 C141.254836,50.469497 141.650509,50.5225444 142.0632,50.5225444 C142.475891,50.5225444 142.871564,50.469497 143.256109,50.3607988 C143.6364,50.2547041 143.991491,50.1053254 144.325309,49.9113609 C144.656509,49.7186982 144.959891,49.4843787 145.2348,49.2139349 C145.506764,48.9402367 145.741091,48.6388757 145.934836,48.3069231 C146.130218,47.9772485 146.281745,47.6199112 146.389745,47.2417456 C146.497745,46.8609763 146.549782,46.4675148 146.549782,46.0574556 L146.549782,46.0574556 Z" id="Fill-7" fill="#836642" sketch:type="MSShapeGroup"></path>
                <path d="M146.994218,46.0613609 C146.994218,46.5134024 146.935636,46.9475444 146.817491,47.3631361 C146.701309,47.7793787 146.534073,48.1699112 146.318073,48.5327811 C146.103382,48.8956509 145.8468,49.2263018 145.547673,49.523432 C145.245927,49.8208876 144.914727,50.0789645 144.550145,50.2908284 C144.183927,50.5056213 143.792182,50.6706213 143.373927,50.7877811 C142.954364,50.9049408 142.518109,50.9638462 142.0632,50.9638462 C141.611236,50.9638462 141.173345,50.9049408 140.755418,50.7877811 C140.335855,50.6706213 139.944109,50.5056213 139.577891,50.2908284 C139.214618,50.0789645 138.880473,49.8208876 138.582982,49.523432 C138.281236,49.2263018 138.024655,48.8956509 137.811273,48.5327811 C137.5992,48.1699112 137.434909,47.7793787 137.317418,47.3631361 C137.202218,46.9475444 137.143309,46.5134024 137.143309,46.0613609 C137.143309,45.6089941 137.202218,45.1751775 137.317418,44.7592604 C137.434909,44.3436686 137.5992,43.9528107 137.811273,43.5899408 C138.024655,43.227071 138.281236,42.8951183 138.582982,42.5992899 C138.880473,42.3005325 139.214618,42.0466864 139.577891,41.834497 C139.944109,41.6223077 140.335855,41.4579586 140.755418,41.3404734 C141.173345,41.2262426 141.611236,41.1673373 142.0632,41.1673373 C142.518109,41.1673373 142.954364,41.2262426 143.373927,41.3404734 C143.792182,41.4579586 144.183927,41.6223077 144.550145,41.834497 C144.914727,42.0466864 145.245927,42.3005325 145.547673,42.5992899 C145.8468,42.8951183 146.103382,43.227071 146.318073,43.5899408 C146.534073,43.9528107 146.701309,44.3436686 146.817491,44.7592604 C146.935636,45.1751775 146.994218,45.6089941 146.994218,46.0613609 L146.994218,46.0613609 Z M146.549782,46.0574556 C146.549782,45.647071 146.497745,45.2506805 146.389745,44.8708876 C146.281745,44.4871893 146.130218,44.1311538 145.934836,43.8008284 C145.741091,43.4698521 145.506764,43.1688166 145.2348,42.8980473 C144.959891,42.6298817 144.656509,42.3981657 144.325309,42.2028994 C143.991491,42.0105621 143.6364,41.8595562 143.256109,41.753787 C142.871564,41.6447633 142.475891,41.591716 142.0632,41.591716 C141.650509,41.591716 141.254836,41.6447633 140.874545,41.753787 C140.494255,41.8595562 140.134909,42.0105621 139.804036,42.2028994 C139.469891,42.3981657 139.166836,42.6298817 138.894545,42.8980473 C138.619636,43.1688166 138.386618,43.4698521 138.190255,43.8008284 C137.996509,44.1311538 137.8476,44.4871893 137.738291,44.8708876 C137.6316,45.2506805 137.575309,45.647071 137.575309,46.0574556 C137.575309,46.4675148 137.6316,46.8609763 137.738291,47.2417456 C137.8476,47.6199112 137.996509,47.9772485 138.190255,48.3069231 C138.386618,48.6388757 138.619636,48.9402367 138.894545,49.2139349 C139.166836,49.4843787 139.469891,49.7186982 139.804036,49.9113609 C140.134909,50.1053254 140.494255,50.2547041 140.874545,50.3607988 C141.254836,50.469497 141.650509,50.5225444 142.0632,50.5225444 C142.475891,50.5225444 142.871564,50.469497 143.256109,50.3607988 C143.6364,50.2547041 143.991491,50.1053254 144.325309,49.9113609 C144.656509,49.7186982 144.959891,49.4843787 145.2348,49.2139349 C145.506764,48.9402367 145.741091,48.6388757 145.934836,48.3069231 C146.130218,47.9772485 146.281745,47.6199112 146.389745,47.2417456 C146.497745,46.8609763 146.549782,46.4675148 146.549782,46.0574556 L146.549782,46.0574556 Z" id="Stroke-8" stroke="#836642" stroke-width="0.047" sketch:type="MSShapeGroup"></path>
                <path d="M155.256873,50.8828107 C155.214982,50.9257692 155.1672,50.9469231 155.111236,50.9469231 C155.045127,50.9469231 154.993418,50.9257692 154.952509,50.8828107 C154.911927,50.8382249 154.8936,50.7835503 154.8936,50.7181361 L154.8936,49.3001775 C154.749273,49.5429586 154.575164,49.7636095 154.375855,49.9673373 C154.178182,50.1681361 153.9576,50.3438757 153.710836,50.4906509 C153.463745,50.6371006 153.201273,50.7500296 152.919164,50.8294379 C152.638691,50.9078698 152.346764,50.9469231 152.040436,50.9469231 C151.5888,50.9469231 151.163673,50.860355 150.763745,50.6901479 C150.368073,50.5173373 150.018873,50.2826923 149.722364,49.9839349 C149.424873,49.6868047 149.191855,49.3366272 149.018073,48.9373077 C148.848545,48.5386391 148.764109,48.1113314 148.764109,47.6589645 L148.764109,41.3557692 C148.764109,41.2887278 148.785055,41.2386095 148.831527,41.1982544 C148.873745,41.1592012 148.924145,41.1380473 148.981745,41.1380473 C149.046218,41.1380473 149.099564,41.1592012 149.138509,41.2011834 C149.177782,41.2428402 149.200691,41.2958876 149.200691,41.3557692 L149.200691,47.6589645 C149.200691,48.0498225 149.273345,48.4211538 149.421927,48.767426 C149.572145,49.1130473 149.775709,49.4147337 150.034255,49.6698817 C150.292473,49.925355 150.592582,50.1290828 150.936218,50.2768343 C151.280182,50.4278402 151.650655,50.5033432 152.040436,50.5033432 C152.4348,50.5033432 152.8056,50.4278402 153.152182,50.2768343 C153.497455,50.1290828 153.800509,49.925355 154.0584,49.6698817 C154.314327,49.4147337 154.5192,49.1130473 154.667782,48.767426 C154.818,48.4211538 154.8936,48.0498225 154.8936,47.6589645 L154.8936,41.3557692 C154.8936,41.2887278 154.914873,41.2386095 154.954145,41.1982544 C154.998655,41.1592012 155.049382,41.1380473 155.111236,41.1380473 C155.175709,41.1380473 155.226436,41.1592012 155.264073,41.2011834 C155.302036,41.2428402 155.321673,41.2958876 155.321673,41.3557692 L155.321673,50.7181361 C155.321673,50.7835503 155.299091,50.8382249 155.256873,50.8828107" id="Fill-9" fill="#836642" sketch:type="MSShapeGroup"></path>
                <path d="M155.256873,50.8828107 C155.214982,50.9257692 155.1672,50.9469231 155.111236,50.9469231 C155.045127,50.9469231 154.993418,50.9257692 154.952509,50.8828107 C154.911927,50.8382249 154.8936,50.7835503 154.8936,50.7181361 L154.8936,49.3001775 C154.749273,49.5429586 154.575164,49.7636095 154.375855,49.9673373 C154.178182,50.1681361 153.9576,50.3438757 153.710836,50.4906509 C153.463745,50.6371006 153.201273,50.7500296 152.919164,50.8294379 C152.638691,50.9078698 152.346764,50.9469231 152.040436,50.9469231 C151.5888,50.9469231 151.163673,50.860355 150.763745,50.6901479 C150.368073,50.5173373 150.018873,50.2826923 149.722364,49.9839349 C149.424873,49.6868047 149.191855,49.3366272 149.018073,48.9373077 C148.848545,48.5386391 148.764109,48.1113314 148.764109,47.6589645 L148.764109,41.3557692 C148.764109,41.2887278 148.785055,41.2386095 148.831527,41.1982544 C148.873745,41.1592012 148.924145,41.1380473 148.981745,41.1380473 C149.046218,41.1380473 149.099564,41.1592012 149.138509,41.2011834 C149.177782,41.2428402 149.200691,41.2958876 149.200691,41.3557692 L149.200691,47.6589645 C149.200691,48.0498225 149.273345,48.4211538 149.421927,48.767426 C149.572145,49.1130473 149.775709,49.4147337 150.034255,49.6698817 C150.292473,49.925355 150.592582,50.1290828 150.936218,50.2768343 C151.280182,50.4278402 151.650655,50.5033432 152.040436,50.5033432 C152.4348,50.5033432 152.8056,50.4278402 153.152182,50.2768343 C153.497455,50.1290828 153.800509,49.925355 154.0584,49.6698817 C154.314327,49.4147337 154.5192,49.1130473 154.667782,48.767426 C154.818,48.4211538 154.8936,48.0498225 154.8936,47.6589645 L154.8936,41.3557692 C154.8936,41.2887278 154.914873,41.2386095 154.954145,41.1982544 C154.998655,41.1592012 155.049382,41.1380473 155.111236,41.1380473 C155.175709,41.1380473 155.226436,41.1592012 155.264073,41.2011834 C155.302036,41.2428402 155.321673,41.2958876 155.321673,41.3557692 L155.321673,50.7181361 C155.321673,50.7835503 155.299091,50.8382249 155.256873,50.8828107 L155.256873,50.8828107 Z" id="Stroke-10" stroke="#836642" stroke-width="0.047" sketch:type="MSShapeGroup"></path>
                <path d="M25.6932,23.5790533 C25.6932,25.1893491 25.362,26.7104734 24.6940364,28.139497 C24.0260727,29.5685207 23.1169091,30.8159467 21.9658909,31.8791716 C20.8125818,32.9427219 19.4596364,33.7830178 17.9050909,34.3981065 C16.3528364,35.0135207 14.6886545,35.3204142 12.9148364,35.3204142 C11.1410182,35.3204142 9.47650909,35.0177515 7.92327273,34.4078698 C6.3684,33.8035207 5.01152727,32.9677811 3.84938182,31.9045562 C2.68887273,30.8413314 1.77545455,29.5991124 1.10749091,28.1772485 C0.440836364,26.7553846 0.105381818,25.2397929 0.105381818,23.626568 C0.105381818,23.3948521 0.188181818,23.2080473 0.352472727,23.0658284 C0.518072727,22.9258876 0.710181818,22.8536391 0.929127273,22.8536391 C1.49465455,22.8536391 1.77938182,23.0947929 1.77938182,23.5790533 C1.77938182,24.9716272 2.07294545,26.2948817 2.65647273,27.5410059 C3.24327273,28.7868047 4.03756364,29.8724852 5.04229091,30.7934911 C6.04832727,31.717426 7.22716364,32.4486982 8.58141818,32.9873077 C9.93436364,33.5285207 11.3782909,33.7992899 12.9148364,33.7992899 C14.4500727,33.7992899 15.8897455,33.5285207 17.2341818,32.9873077 C18.5786182,32.4486982 19.7528727,31.717426 20.7579273,30.7934911 C21.7639636,29.8724852 22.5595636,28.7868047 23.1447273,27.5410059 C23.7298909,26.2948817 24.0218182,24.9716272 24.0218182,23.5790533 C24.0218182,22.1809467 23.7298909,20.8635503 23.1447273,19.6271893 C22.5595636,18.3878994 21.7639636,17.3080769 20.7579273,16.384142 C19.7528727,15.4631361 18.5786182,14.7347929 17.2341818,14.2030178 C15.8897455,13.671568 14.4500727,13.4063314 12.9148364,13.4063314 C12.6579273,13.4063314 12.4517455,13.3405917 12.2972727,13.2068343 C12.1431273,13.0740533 12.0642545,12.8898521 12.0642545,12.6584615 C12.0642545,12.4433432 12.1431273,12.2519822 12.2972727,12.0847041 C12.4517455,11.9187278 12.6579273,11.8350888 12.9148364,11.8350888 C14.6886545,11.8350888 16.3528364,12.1436095 17.9050909,12.7586982 C19.4596364,13.3741124 20.8125818,14.2127811 21.9658909,15.2763314 C23.1169091,16.3395562 24.0260727,17.5814497 24.6940364,19.0020118 C25.362,20.4238757 25.6932,21.9492308 25.6932,23.5790533 L25.6932,23.5790533 Z M23.5279636,10.0907101 C23.5279636,10.3250296 23.4422182,10.5105325 23.2684364,10.6514497 C23.0943273,10.7939941 22.8979636,10.8636391 22.6773818,10.8636391 C22.1118545,10.8636391 21.8284364,10.6068639 21.8284364,10.0907101 C21.8284364,8.96044379 21.5954182,7.90242604 21.1284,6.91177515 C20.6623636,5.92242604 20.0264727,5.06423077 19.224,4.3316568 C18.4169455,3.60168639 17.4757091,3.02142012 16.398,2.58597633 C15.3186545,2.15606509 14.1565091,1.9383432 12.9148364,1.9383432 C11.6715273,1.9383432 10.5038182,2.15606509 9.4176,2.58597633 C8.32876364,3.02142012 7.37869091,3.60168639 6.56345455,4.3316568 C5.75247273,5.06423077 5.10676364,5.92242604 4.63254545,6.91177515 C4.15538182,7.90242604 3.91810909,8.96044379 3.91810909,10.0907101 C3.91810909,11.237574 4.15538182,12.3092604 4.63254545,13.3057692 C5.10676364,14.3035799 5.75247273,15.1728402 6.56345455,15.912574 C7.37869091,16.6519822 8.32876364,17.2381065 9.4176,17.6693195 C10.5038182,18.1005325 11.6715273,18.3182544 12.9148364,18.3182544 C13.1701091,18.3182544 13.3720364,18.410355 13.5166909,18.5903254 C13.6639636,18.7748521 13.7372727,18.957426 13.7372727,19.1390237 C13.7372727,19.3899408 13.6557818,19.5796746 13.4901818,19.7137574 C13.3245818,19.846213 13.1337818,19.9132544 12.9148364,19.9132544 C11.4329455,19.9132544 10.0436727,19.6551775 8.74407273,19.1390237 C7.44741818,18.6251479 6.31374545,17.9218639 5.34534545,17.0330769 C4.37432727,16.1439645 3.61243636,15.1002663 3.05509091,13.9058876 C2.49676364,12.7085799 2.21727273,11.4357692 2.21727273,10.0907101 C2.21727273,8.74402367 2.49676364,7.48097633 3.05509091,6.30059172 C3.61243636,5.12281065 4.37432727,4.09017751 5.34534545,3.21115385 C6.31374545,2.33050296 7.44741818,1.6314497 8.74407273,1.11659763 C10.0436727,0.601745562 11.4329455,0.34204142 12.9148364,0.34204142 C14.3937818,0.34204142 15.7804364,0.597189349 17.0698909,1.10390533 C18.3580364,1.61029586 19.4835273,2.30414201 20.4421091,3.18609467 C21.4033091,4.06511834 22.1570182,5.10035503 22.7042182,6.28952663 C23.2543636,7.47837278 23.5279636,8.74402367 23.5279636,10.0907101 L23.5279636,10.0907101 Z" id="Fill-11" fill="#543E52" sketch:type="MSShapeGroup"></path>
                <path d="M25.6932,23.5790533 C25.6932,25.1893491 25.362,26.7104734 24.6940364,28.139497 C24.0260727,29.5685207 23.1169091,30.8159467 21.9658909,31.8791716 C20.8125818,32.9427219 19.4596364,33.7830178 17.9050909,34.3981065 C16.3528364,35.0135207 14.6886545,35.3204142 12.9148364,35.3204142 C11.1410182,35.3204142 9.47650909,35.0177515 7.92327273,34.4078698 C6.3684,33.8035207 5.01152727,32.9677811 3.84938182,31.9045562 C2.68887273,30.8413314 1.77545455,29.5991124 1.10749091,28.1772485 C0.440836364,26.7553846 0.105381818,25.2397929 0.105381818,23.626568 C0.105381818,23.3948521 0.188181818,23.2080473 0.352472727,23.0658284 C0.518072727,22.9258876 0.710181818,22.8536391 0.929127273,22.8536391 C1.49465455,22.8536391 1.77938182,23.0947929 1.77938182,23.5790533 C1.77938182,24.9716272 2.07294545,26.2948817 2.65647273,27.5410059 C3.24327273,28.7868047 4.03756364,29.8724852 5.04229091,30.7934911 C6.04832727,31.717426 7.22716364,32.4486982 8.58141818,32.9873077 C9.93436364,33.5285207 11.3782909,33.7992899 12.9148364,33.7992899 C14.4500727,33.7992899 15.8897455,33.5285207 17.2341818,32.9873077 C18.5786182,32.4486982 19.7528727,31.717426 20.7579273,30.7934911 C21.7639636,29.8724852 22.5595636,28.7868047 23.1447273,27.5410059 C23.7298909,26.2948817 24.0218182,24.9716272 24.0218182,23.5790533 C24.0218182,22.1809467 23.7298909,20.8635503 23.1447273,19.6271893 C22.5595636,18.3878994 21.7639636,17.3080769 20.7579273,16.384142 C19.7528727,15.4631361 18.5786182,14.7347929 17.2341818,14.2030178 C15.8897455,13.671568 14.4500727,13.4063314 12.9148364,13.4063314 C12.6579273,13.4063314 12.4517455,13.3405917 12.2972727,13.2068343 C12.1431273,13.0740533 12.0642545,12.8898521 12.0642545,12.6584615 C12.0642545,12.4433432 12.1431273,12.2519822 12.2972727,12.0847041 C12.4517455,11.9187278 12.6579273,11.8350888 12.9148364,11.8350888 C14.6886545,11.8350888 16.3528364,12.1436095 17.9050909,12.7586982 C19.4596364,13.3741124 20.8125818,14.2127811 21.9658909,15.2763314 C23.1169091,16.3395562 24.0260727,17.5814497 24.6940364,19.0020118 C25.362,20.4238757 25.6932,21.9492308 25.6932,23.5790533 L25.6932,23.5790533 Z M23.5279636,10.0907101 C23.5279636,10.3250296 23.4422182,10.5105325 23.2684364,10.6514497 C23.0943273,10.7939941 22.8979636,10.8636391 22.6773818,10.8636391 C22.1118545,10.8636391 21.8284364,10.6068639 21.8284364,10.0907101 C21.8284364,8.96044379 21.5954182,7.90242604 21.1284,6.91177515 C20.6623636,5.92242604 20.0264727,5.06423077 19.224,4.3316568 C18.4169455,3.60168639 17.4757091,3.02142012 16.398,2.58597633 C15.3186545,2.15606509 14.1565091,1.9383432 12.9148364,1.9383432 C11.6715273,1.9383432 10.5038182,2.15606509 9.4176,2.58597633 C8.32876364,3.02142012 7.37869091,3.60168639 6.56345455,4.3316568 C5.75247273,5.06423077 5.10676364,5.92242604 4.63254545,6.91177515 C4.15538182,7.90242604 3.91810909,8.96044379 3.91810909,10.0907101 C3.91810909,11.237574 4.15538182,12.3092604 4.63254545,13.3057692 C5.10676364,14.3035799 5.75247273,15.1728402 6.56345455,15.912574 C7.37869091,16.6519822 8.32876364,17.2381065 9.4176,17.6693195 C10.5038182,18.1005325 11.6715273,18.3182544 12.9148364,18.3182544 C13.1701091,18.3182544 13.3720364,18.410355 13.5166909,18.5903254 C13.6639636,18.7748521 13.7372727,18.957426 13.7372727,19.1390237 C13.7372727,19.3899408 13.6557818,19.5796746 13.4901818,19.7137574 C13.3245818,19.846213 13.1337818,19.9132544 12.9148364,19.9132544 C11.4329455,19.9132544 10.0436727,19.6551775 8.74407273,19.1390237 C7.44741818,18.6251479 6.31374545,17.9218639 5.34534545,17.0330769 C4.37432727,16.1439645 3.61243636,15.1002663 3.05509091,13.9058876 C2.49676364,12.7085799 2.21727273,11.4357692 2.21727273,10.0907101 C2.21727273,8.74402367 2.49676364,7.48097633 3.05509091,6.30059172 C3.61243636,5.12281065 4.37432727,4.09017751 5.34534545,3.21115385 C6.31374545,2.33050296 7.44741818,1.6314497 8.74407273,1.11659763 C10.0436727,0.601745562 11.4329455,0.34204142 12.9148364,0.34204142 C14.3937818,0.34204142 15.7804364,0.597189349 17.0698909,1.10390533 C18.3580364,1.61029586 19.4835273,2.30414201 20.4421091,3.18609467 C21.4033091,4.06511834 22.1570182,5.10035503 22.7042182,6.28952663 C23.2543636,7.47837278 23.5279636,8.74402367 23.5279636,10.0907101 L23.5279636,10.0907101 Z" id="Stroke-12" stroke="#543E52" stroke-width="0.047" sketch:type="MSShapeGroup"></path>
                <path d="M66.2514545,17.8186982 C66.2514545,19.4319231 66.0436364,20.9807101 65.6270182,22.4670118 C65.2100727,23.9559172 64.6167273,25.3471893 63.846,26.6450592 C63.0769091,27.9413018 62.1579273,29.1216864 61.0900364,30.1852367 C60.0195273,31.248787 58.8321818,32.1626331 57.5283273,32.9261243 C56.2261091,33.6905917 54.8257091,34.2809467 53.3297455,34.6952367 C51.8337818,35.1114793 50.2776,35.3204142 48.6569455,35.3204142 C47.0346545,35.3204142 45.4768364,35.1114793 43.9795636,34.6952367 C42.4822909,34.2809467 41.0845091,33.6905917 39.7796727,32.9261243 C38.4771273,32.1626331 37.2901091,31.248787 36.2209091,30.1852367 C35.1513818,29.1216864 34.2350182,27.9413018 33.4760727,26.6450592 C32.7151636,25.3471893 32.1260727,23.9559172 31.7078182,22.4670118 C31.2908727,20.9807101 31.0820727,19.4319231 31.0820727,17.8186982 C31.0820727,16.2054734 31.2908727,14.6566864 31.7078182,13.1690828 C32.1260727,11.6827811 32.7151636,10.2889053 33.4760727,8.9939645 C34.2350182,7.69739645 35.1513818,6.51831361 36.2209091,5.45346154 C37.2901091,4.39023669 38.4771273,3.48159763 39.7796727,2.72526627 C41.0845091,1.96926036 42.4822909,1.38281065 43.9795636,0.96591716 C45.4768364,0.551301775 47.0346545,0.34204142 48.6569455,0.34204142 C50.2776,0.34204142 51.8337818,0.551301775 53.3297455,0.96591716 C54.8257091,1.38281065 56.2261091,1.96926036 57.5283273,2.72526627 C58.8321818,3.48159763 60.0195273,4.39023669 61.0900364,5.45346154 C62.1579273,6.51831361 63.0769091,7.69739645 63.846,8.9939645 C64.6167273,10.2889053 65.2100727,11.6827811 65.6270182,13.1690828 C66.0436364,14.6566864 66.2514545,16.2054734 66.2514545,17.8186982 L66.2514545,17.8186982 Z M64.674,17.8076331 C64.674,16.3421598 64.4818909,14.9300592 64.0960364,13.5654734 C63.7144364,12.2005621 63.1754182,10.9293787 62.4793091,9.74736686 C61.7874545,8.56828402 60.9525818,7.49497041 59.976,6.52970414 C58.9964727,5.56378698 57.9128727,4.73781065 56.7271636,4.04689349 C55.5401455,3.35597633 54.2670545,2.82029586 52.9046182,2.43789941 C51.5418545,2.05550296 50.1260727,1.86316568 48.6569455,1.86316568 C47.1832364,1.86316568 45.7687636,2.05550296 44.4050182,2.43789941 C43.0435636,2.82029586 41.7694909,3.35597633 40.5821455,4.04689349 C39.3951273,4.73781065 38.3144727,5.56378698 37.3349455,6.52970414 C36.3583636,7.49497041 35.5234909,8.56828402 34.8286909,9.74736686 C34.1355273,10.9293787 33.5965091,12.2005621 33.2119636,13.5654734 C32.8277455,14.9300592 32.6369455,16.3421598 32.6369455,17.8076331 C32.6369455,19.2698521 32.8277455,20.6793491 33.2119636,22.0357988 C33.5965091,23.3922485 34.1355273,24.6595266 34.8286909,25.841213 C35.5234909,27.0215976 36.3583636,28.0978402 37.3349455,29.071568 C38.3144727,30.0443195 39.3951273,30.8745266 40.5821455,31.5667456 C41.7694909,32.2560355 43.0435636,32.7920414 44.4050182,33.1757396 C45.7687636,33.5565089 47.1832364,33.7491716 48.6569455,33.7491716 C50.1260727,33.7491716 51.5418545,33.5565089 52.9046182,33.1757396 C54.2670545,32.7920414 55.5401455,32.2560355 56.7271636,31.5667456 C57.9128727,30.8745266 58.9964727,30.0443195 59.976,29.071568 C60.9525818,28.0978402 61.7874545,27.0215976 62.4793091,25.841213 C63.1754182,24.6595266 63.7144364,23.3922485 64.0960364,22.0357988 C64.4818909,20.6793491 64.674,19.2698521 64.674,17.8076331 L64.674,17.8076331 Z" id="Fill-13" fill="#543E52" sketch:type="MSShapeGroup"></path>
                <path d="M66.2514545,17.8186982 C66.2514545,19.4319231 66.0436364,20.9807101 65.6270182,22.4670118 C65.2100727,23.9559172 64.6167273,25.3471893 63.846,26.6450592 C63.0769091,27.9413018 62.1579273,29.1216864 61.0900364,30.1852367 C60.0195273,31.248787 58.8321818,32.1626331 57.5283273,32.9261243 C56.2261091,33.6905917 54.8257091,34.2809467 53.3297455,34.6952367 C51.8337818,35.1114793 50.2776,35.3204142 48.6569455,35.3204142 C47.0346545,35.3204142 45.4768364,35.1114793 43.9795636,34.6952367 C42.4822909,34.2809467 41.0845091,33.6905917 39.7796727,32.9261243 C38.4771273,32.1626331 37.2901091,31.248787 36.2209091,30.1852367 C35.1513818,29.1216864 34.2350182,27.9413018 33.4760727,26.6450592 C32.7151636,25.3471893 32.1260727,23.9559172 31.7078182,22.4670118 C31.2908727,20.9807101 31.0820727,19.4319231 31.0820727,17.8186982 C31.0820727,16.2054734 31.2908727,14.6566864 31.7078182,13.1690828 C32.1260727,11.6827811 32.7151636,10.2889053 33.4760727,8.9939645 C34.2350182,7.69739645 35.1513818,6.51831361 36.2209091,5.45346154 C37.2901091,4.39023669 38.4771273,3.48159763 39.7796727,2.72526627 C41.0845091,1.96926036 42.4822909,1.38281065 43.9795636,0.96591716 C45.4768364,0.551301775 47.0346545,0.34204142 48.6569455,0.34204142 C50.2776,0.34204142 51.8337818,0.551301775 53.3297455,0.96591716 C54.8257091,1.38281065 56.2261091,1.96926036 57.5283273,2.72526627 C58.8321818,3.48159763 60.0195273,4.39023669 61.0900364,5.45346154 C62.1579273,6.51831361 63.0769091,7.69739645 63.846,8.9939645 C64.6167273,10.2889053 65.2100727,11.6827811 65.6270182,13.1690828 C66.0436364,14.6566864 66.2514545,16.2054734 66.2514545,17.8186982 L66.2514545,17.8186982 Z M64.674,17.8076331 C64.674,16.3421598 64.4818909,14.9300592 64.0960364,13.5654734 C63.7144364,12.2005621 63.1754182,10.9293787 62.4793091,9.74736686 C61.7874545,8.56828402 60.9525818,7.49497041 59.976,6.52970414 C58.9964727,5.56378698 57.9128727,4.73781065 56.7271636,4.04689349 C55.5401455,3.35597633 54.2670545,2.82029586 52.9046182,2.43789941 C51.5418545,2.05550296 50.1260727,1.86316568 48.6569455,1.86316568 C47.1832364,1.86316568 45.7687636,2.05550296 44.4050182,2.43789941 C43.0435636,2.82029586 41.7694909,3.35597633 40.5821455,4.04689349 C39.3951273,4.73781065 38.3144727,5.56378698 37.3349455,6.52970414 C36.3583636,7.49497041 35.5234909,8.56828402 34.8286909,9.74736686 C34.1355273,10.9293787 33.5965091,12.2005621 33.2119636,13.5654734 C32.8277455,14.9300592 32.6369455,16.3421598 32.6369455,17.8076331 C32.6369455,19.2698521 32.8277455,20.6793491 33.2119636,22.0357988 C33.5965091,23.3922485 34.1355273,24.6595266 34.8286909,25.841213 C35.5234909,27.0215976 36.3583636,28.0978402 37.3349455,29.071568 C38.3144727,30.0443195 39.3951273,30.8745266 40.5821455,31.5667456 C41.7694909,32.2560355 43.0435636,32.7920414 44.4050182,33.1757396 C45.7687636,33.5565089 47.1832364,33.7491716 48.6569455,33.7491716 C50.1260727,33.7491716 51.5418545,33.5565089 52.9046182,33.1757396 C54.2670545,32.7920414 55.5401455,32.2560355 56.7271636,31.5667456 C57.9128727,30.8745266 58.9964727,30.0443195 59.976,29.071568 C60.9525818,28.0978402 61.7874545,27.0215976 62.4793091,25.841213 C63.1754182,24.6595266 63.7144364,23.3922485 64.0960364,22.0357988 C64.4818909,20.6793491 64.674,19.2698521 64.674,17.8076331 L64.674,17.8076331 Z" id="Stroke-14" stroke="#543E52" stroke-width="0.047" sketch:type="MSShapeGroup"></path>
                <path d="M95.2393091,35.058432 C95.0894182,35.2003254 94.9123636,35.2689941 94.7130545,35.2689941 C94.4774182,35.2689941 94.2892364,35.1951183 94.1491636,35.0470414 C94.0087636,34.8963609 93.9354545,34.7121598 93.9354545,34.4973669 L93.9354545,11.9857692 C93.9354545,10.5902663 93.6690545,9.27156805 93.1342909,8.03357988 C92.5969091,6.79461538 91.8716727,5.72 90.9536727,4.80485207 C90.0343636,3.89198225 88.9540364,3.1691716 87.7189091,2.63609467 C86.4828,2.10594675 85.1609455,1.83810651 83.7589091,1.83810651 C82.3529455,1.83810651 81.0366545,2.10594675 79.8100364,2.63609467 C78.5808,3.1691716 77.5073455,3.89198225 76.5880364,4.80485207 C75.6674182,5.72 74.9405455,6.79461538 74.4074182,8.03357988 C73.8713455,9.27156805 73.6046182,10.5902663 73.6046182,11.9857692 L73.6046182,34.4973669 C73.6046182,34.7287574 73.5290182,34.9171893 73.3801091,35.058432 C73.2298909,35.2003254 73.0446545,35.2689941 72.8273455,35.2689941 C72.5943273,35.2689941 72.4061455,35.1951183 72.2631273,35.0470414 C72.1201091,34.8963609 72.0510545,34.7121598 72.0510545,34.4973669 L72.0510545,1.06615385 C72.0510545,0.833136095 72.1286182,0.646005917 72.2883273,0.505414201 C72.4470545,0.364497041 72.6250909,0.294526627 72.8273455,0.294526627 C73.3464,0.294526627 73.6046182,0.551301775 73.6046182,1.06615385 L73.6046182,6.12745562 C74.1223636,5.24550296 74.7369818,4.44881657 75.4488,3.73284024 C76.1586545,3.02142012 76.9473818,2.39884615 77.8172727,1.87715976 C78.6861818,1.35221893 79.6205455,0.950295858 80.6239636,0.665857988 C81.6260727,0.386627219 82.6700727,0.244408284 83.7589091,0.244408284 C85.3798909,0.244408284 86.8994182,0.551301775 88.3194545,1.1654142 C89.7411273,1.78213018 90.9801818,2.62210059 92.0412,3.68565089 C93.1048364,4.74887574 93.9413455,5.98946746 94.5504,7.41133136 C95.1594545,8.83189349 95.4651273,10.3585503 95.4651273,11.9857692 L95.4651273,34.4973669 C95.4651273,34.7287574 95.3911636,34.9171893 95.2393091,35.058432 L95.2393091,35.058432 Z" id="Fill-15" fill="#543E52" sketch:type="MSShapeGroup"></path>
                <path d="M95.2393091,35.058432 C95.0894182,35.2003254 94.9123636,35.2689941 94.7130545,35.2689941 C94.4774182,35.2689941 94.2892364,35.1951183 94.1491636,35.0470414 C94.0087636,34.8963609 93.9354545,34.7121598 93.9354545,34.4973669 L93.9354545,11.9857692 C93.9354545,10.5902663 93.6690545,9.27156805 93.1342909,8.03357988 C92.5969091,6.79461538 91.8716727,5.72 90.9536727,4.80485207 C90.0343636,3.89198225 88.9540364,3.1691716 87.7189091,2.63609467 C86.4828,2.10594675 85.1609455,1.83810651 83.7589091,1.83810651 C82.3529455,1.83810651 81.0366545,2.10594675 79.8100364,2.63609467 C78.5808,3.1691716 77.5073455,3.89198225 76.5880364,4.80485207 C75.6674182,5.72 74.9405455,6.79461538 74.4074182,8.03357988 C73.8713455,9.27156805 73.6046182,10.5902663 73.6046182,11.9857692 L73.6046182,34.4973669 C73.6046182,34.7287574 73.5290182,34.9171893 73.3801091,35.058432 C73.2298909,35.2003254 73.0446545,35.2689941 72.8273455,35.2689941 C72.5943273,35.2689941 72.4061455,35.1951183 72.2631273,35.0470414 C72.1201091,34.8963609 72.0510545,34.7121598 72.0510545,34.4973669 L72.0510545,1.06615385 C72.0510545,0.833136095 72.1286182,0.646005917 72.2883273,0.505414201 C72.4470545,0.364497041 72.6250909,0.294526627 72.8273455,0.294526627 C73.3464,0.294526627 73.6046182,0.551301775 73.6046182,1.06615385 L73.6046182,6.12745562 C74.1223636,5.24550296 74.7369818,4.44881657 75.4488,3.73284024 C76.1586545,3.02142012 76.9473818,2.39884615 77.8172727,1.87715976 C78.6861818,1.35221893 79.6205455,0.950295858 80.6239636,0.665857988 C81.6260727,0.386627219 82.6700727,0.244408284 83.7589091,0.244408284 C85.3798909,0.244408284 86.8994182,0.551301775 88.3194545,1.1654142 C89.7411273,1.78213018 90.9801818,2.62210059 92.0412,3.68565089 C93.1048364,4.74887574 93.9413455,5.98946746 94.5504,7.41133136 C95.1594545,8.83189349 95.4651273,10.3585503 95.4651273,11.9857692 L95.4651273,34.4973669 C95.4651273,34.7287574 95.3911636,34.9171893 95.2393091,35.058432 L95.2393091,35.058432 Z" id="Stroke-16" stroke="#543E52" stroke-width="0.047" sketch:type="MSShapeGroup"></path>
                <path d="M131.094982,5.22890533 C131.297236,5.41310651 131.383964,5.60284024 131.3604,5.80363905 C131.3352,6.00183432 131.246509,6.17366864 131.094982,6.3145858 C130.946073,6.45680473 130.766727,6.53784024 130.556291,6.56289941 C130.348473,6.58795858 130.152109,6.51831361 129.966873,6.3510355 C128.531127,4.93860947 126.862691,3.83047337 124.968436,3.02142012 C123.068291,2.21757396 121.025127,1.81272189 118.838618,1.81272189 C116.629855,1.81272189 114.558545,2.2312426 112.617818,3.06307692 C110.679709,3.89491124 108.987709,5.03363905 107.540836,6.47926036 C106.096909,7.92488166 104.955709,9.61491124 104.120509,11.5447929 C103.284655,13.4730473 102.8664,15.5357101 102.8664,17.7321302 C102.8664,19.9425444 103.284655,22.0188757 104.120509,23.9572189 C104.955709,25.8955621 106.096909,27.5826627 107.540836,29.0227515 C108.987709,30.4618639 110.679709,31.5947337 112.617818,32.426568 C114.558545,33.2593787 116.629855,33.6739941 118.838618,33.6739941 C120.859527,33.6739941 122.750836,33.347574 124.515164,32.6901775 C126.276218,32.0331065 127.862182,31.0893195 129.2652,29.8601183 C129.449127,29.6938166 129.647127,29.6271006 129.854291,29.6606213 C130.063745,29.6938166 130.233273,29.7836391 130.368436,29.922929 C130.501636,30.0651479 130.577236,30.235355 130.593927,30.4338757 C130.610945,30.6346746 130.526836,30.8159467 130.342582,30.9819231 C128.824691,32.3286095 127.081636,33.3778402 125.117018,34.134497 C123.1524,34.8908284 121.058509,35.2689941 118.838618,35.2689941 C117.233345,35.2689941 115.682727,35.0636391 114.185127,34.6451183 C112.692109,34.2318047 111.294327,33.6447041 109.999309,32.8893491 C108.702655,32.1333432 107.519564,31.2234024 106.452982,30.1601775 C105.381164,29.0966272 104.467418,27.9107101 103.705527,26.6073077 C102.944945,25.3009763 102.355527,23.9002663 101.939891,22.4042012 C101.520327,20.9097633 101.3112,19.3567456 101.3112,17.7448225 C101.3112,16.1328994 101.520327,14.5811834 101.939891,13.0935799 C102.355527,11.6089053 102.944945,10.2189349 103.705527,8.93245562 C104.467418,7.64304734 105.381164,6.46786982 106.452982,5.40464497 C107.519564,4.3397929 108.702655,3.43147929 109.999309,2.67384615 C111.294327,1.91881657 112.692109,1.33269231 114.185127,0.916775148 C115.682727,0.501183432 117.233345,0.294526627 118.838618,0.294526627 C121.227055,0.294526627 123.466909,0.729970414 125.557527,1.60215976 C127.643236,2.47402367 129.491018,3.68565089 131.094982,5.22890533 L131.094982,5.22890533 Z" id="Fill-17" fill="#543E52" sketch:type="MSShapeGroup"></path>
                <path d="M131.094982,5.22890533 C131.297236,5.41310651 131.383964,5.60284024 131.3604,5.80363905 C131.3352,6.00183432 131.246509,6.17366864 131.094982,6.3145858 C130.946073,6.45680473 130.766727,6.53784024 130.556291,6.56289941 C130.348473,6.58795858 130.152109,6.51831361 129.966873,6.3510355 C128.531127,4.93860947 126.862691,3.83047337 124.968436,3.02142012 C123.068291,2.21757396 121.025127,1.81272189 118.838618,1.81272189 C116.629855,1.81272189 114.558545,2.2312426 112.617818,3.06307692 C110.679709,3.89491124 108.987709,5.03363905 107.540836,6.47926036 C106.096909,7.92488166 104.955709,9.61491124 104.120509,11.5447929 C103.284655,13.4730473 102.8664,15.5357101 102.8664,17.7321302 C102.8664,19.9425444 103.284655,22.0188757 104.120509,23.9572189 C104.955709,25.8955621 106.096909,27.5826627 107.540836,29.0227515 C108.987709,30.4618639 110.679709,31.5947337 112.617818,32.426568 C114.558545,33.2593787 116.629855,33.6739941 118.838618,33.6739941 C120.859527,33.6739941 122.750836,33.347574 124.515164,32.6901775 C126.276218,32.0331065 127.862182,31.0893195 129.2652,29.8601183 C129.449127,29.6938166 129.647127,29.6271006 129.854291,29.6606213 C130.063745,29.6938166 130.233273,29.7836391 130.368436,29.922929 C130.501636,30.0651479 130.577236,30.235355 130.593927,30.4338757 C130.610945,30.6346746 130.526836,30.8159467 130.342582,30.9819231 C128.824691,32.3286095 127.081636,33.3778402 125.117018,34.134497 C123.1524,34.8908284 121.058509,35.2689941 118.838618,35.2689941 C117.233345,35.2689941 115.682727,35.0636391 114.185127,34.6451183 C112.692109,34.2318047 111.294327,33.6447041 109.999309,32.8893491 C108.702655,32.1333432 107.519564,31.2234024 106.452982,30.1601775 C105.381164,29.0966272 104.467418,27.9107101 103.705527,26.6073077 C102.944945,25.3009763 102.355527,23.9002663 101.939891,22.4042012 C101.520327,20.9097633 101.3112,19.3567456 101.3112,17.7448225 C101.3112,16.1328994 101.520327,14.5811834 101.939891,13.0935799 C102.355527,11.6089053 102.944945,10.2189349 103.705527,8.93245562 C104.467418,7.64304734 105.381164,6.46786982 106.452982,5.40464497 C107.519564,4.3397929 108.702655,3.43147929 109.999309,2.67384615 C111.294327,1.91881657 112.692109,1.33269231 114.185127,0.916775148 C115.682727,0.501183432 117.233345,0.294526627 118.838618,0.294526627 C121.227055,0.294526627 123.466909,0.729970414 125.557527,1.60215976 C127.643236,2.47402367 129.491018,3.68565089 131.094982,5.22890533 L131.094982,5.22890533 Z" id="Stroke-18" stroke="#543E52" stroke-width="0.047" sketch:type="MSShapeGroup"></path>
                <path d="M161.886109,32.8392308 L161.886109,54.6794379 L160.356764,54.6794379 L160.356764,32.681716" id="Fill-19" fill="#543E52" sketch:type="MSShapeGroup"></path>
                <path d="M161.886109,32.8392308 L161.886109,54.6794379 L160.356764,54.6794379 L160.356764,32.681716" id="Stroke-20" stroke="#543E52" stroke-width="0.047" sketch:type="MSShapeGroup"></path>
                <path d="M161.673055,46.3418935 C161.521527,46.4759763 161.344473,46.5430178 161.145491,46.5430178 C160.912473,46.5430178 160.720364,46.4759763 160.577018,46.3418935 C160.434,46.2107396 160.365273,46.0265385 160.365273,45.7935207 L160.365273,29.5711243 C159.842945,30.4560059 159.225709,31.2627811 158.509964,31.9911243 C157.797164,32.7165385 156.997309,33.3348817 156.114655,33.845503 C155.230364,34.3551479 154.287491,34.754142 153.278509,35.0356509 C152.271164,35.3204142 151.218655,35.4629586 150.126873,35.4629586 C148.496073,35.4629586 146.966727,35.1531361 145.537855,34.5360947 C144.108,33.9167751 142.861418,33.0738757 141.792545,32.0034911 C140.724327,30.933432 139.885527,29.6762426 139.273527,28.2286686 C138.660545,26.7859763 138.352909,25.2427219 138.352909,23.6041124 L138.352909,0.914171598 C138.352909,0.679526627 138.432764,0.492721893 138.593127,0.350502959 C138.752836,0.20795858 138.9312,0.136686391 139.133127,0.136686391 C139.369091,0.136686391 139.559891,0.212189349 139.702909,0.361568047 C139.846255,0.512248521 139.915964,0.696449704 139.915964,0.914171598 L139.915964,23.6041124 C139.915964,25.0246746 140.185636,26.3615976 140.723018,27.6148817 C141.260727,28.8707692 141.993164,29.960355 142.916727,30.8885207 C143.839964,31.8150592 144.920291,32.5463314 146.155418,33.0820118 C147.391527,33.6154142 148.714691,33.8832544 150.126873,33.8832544 C151.5384,33.8832544 152.864509,33.6154142 154.110764,33.0820118 C155.352764,32.5463314 156.438655,31.8150592 157.361891,30.8885207 C158.286764,29.960355 159.019527,28.8707692 159.556909,27.6148817 C160.095927,26.3615976 160.365273,25.0246746 160.365273,23.6041124 L160.365273,0.964289941 C160.365273,0.696449704 160.438255,0.492721893 160.589455,0.350502959 C160.740982,0.20795858 160.9236,0.136686391 161.145491,0.136686391 C161.378509,0.136686391 161.563418,0.216420118 161.698255,0.37556213 C161.832764,0.534704142 161.903127,0.729970414 161.903127,0.964289941 L161.903127,45.7935207 C161.903127,46.0265385 161.824582,46.2107396 161.673055,46.3418935 L161.673055,46.3418935 Z" id="Fill-21" fill="#543E52" sketch:type="MSShapeGroup"></path>
                <path d="M161.673055,46.3418935 C161.521527,46.4759763 161.344473,46.5430178 161.145491,46.5430178 C160.912473,46.5430178 160.720364,46.4759763 160.577018,46.3418935 C160.434,46.2107396 160.365273,46.0265385 160.365273,45.7935207 L160.365273,29.5711243 C159.842945,30.4560059 159.225709,31.2627811 158.509964,31.9911243 C157.797164,32.7165385 156.997309,33.3348817 156.114655,33.845503 C155.230364,34.3551479 154.287491,34.754142 153.278509,35.0356509 C152.271164,35.3204142 151.218655,35.4629586 150.126873,35.4629586 C148.496073,35.4629586 146.966727,35.1531361 145.537855,34.5360947 C144.108,33.9167751 142.861418,33.0738757 141.792545,32.0034911 C140.724327,30.933432 139.885527,29.6762426 139.273527,28.2286686 C138.660545,26.7859763 138.352909,25.2427219 138.352909,23.6041124 L138.352909,0.914171598 C138.352909,0.679526627 138.432764,0.492721893 138.593127,0.350502959 C138.752836,0.20795858 138.9312,0.136686391 139.133127,0.136686391 C139.369091,0.136686391 139.559891,0.212189349 139.702909,0.361568047 C139.846255,0.512248521 139.915964,0.696449704 139.915964,0.914171598 L139.915964,23.6041124 C139.915964,25.0246746 140.185636,26.3615976 140.723018,27.6148817 C141.260727,28.8707692 141.993164,29.960355 142.916727,30.8885207 C143.839964,31.8150592 144.920291,32.5463314 146.155418,33.0820118 C147.391527,33.6154142 148.714691,33.8832544 150.126873,33.8832544 C151.5384,33.8832544 152.864509,33.6154142 154.110764,33.0820118 C155.352764,32.5463314 156.438655,31.8150592 157.361891,30.8885207 C158.286764,29.960355 159.019527,28.8707692 159.556909,27.6148817 C160.095927,26.3615976 160.365273,25.0246746 160.365273,23.6041124 L160.365273,0.964289941 C160.365273,0.696449704 160.438255,0.492721893 160.589455,0.350502959 C160.740982,0.20795858 160.9236,0.136686391 161.145491,0.136686391 C161.378509,0.136686391 161.563418,0.216420118 161.698255,0.37556213 C161.832764,0.534704142 161.903127,0.729970414 161.903127,0.964289941 L161.903127,45.7935207 C161.903127,46.0265385 161.824582,46.2107396 161.673055,46.3418935 L161.673055,46.3418935 Z" id="Stroke-22" stroke="#543E52" stroke-width="0.047" sketch:type="MSShapeGroup"></path>
            </g>
        </g>
    </g>
</svg>