<?xml version="1.0" encoding="UTF-8" standalone="no"?>
<svg width="49px" height="49px" viewBox="0 0 49 49" version="1.1" xmlns="http://www.w3.org/2000/svg" xmlns:xlink="http://www.w3.org/1999/xlink" xmlns:sketch="http://www.bohemiancoding.com/sketch/ns">
    <!-- Generator: Sketch 3.0.4 (8053) - http://www.bohemiancoding.com/sketch -->
    <title>discount</title>
    <desc>Created with Sketch.</desc>
    <defs></defs>
    <g id="Page-1" stroke="none" stroke-width="1" fill="none" fill-rule="evenodd" sketch:type="MSPage">
        <g id="First-time-at-Soncy?-+-discount" sketch:type="MSLayerGroup">
            <g id="discount" transform="translate(24.500000, 24.500000) scale(-1, 1) rotate(-270.000000) translate(-24.500000, -24.500000) " sketch:type="MSShapeGroup">
                <path d="M0,24.49951 C0,38.03086 10.96914,48.99951 24.5,48.99951 C38.03086,48.99951 49,38.03086 49,24.49951 C49,10.96865 38.03086,0 24.5,0 C10.96914,3.48165941e-15 0,10.96865 0,24.49951 Z" id="Shape" fill="#E8E8E8"></path>
                <path d="M27.3462673,12.8805501 C27.2592297,12.7935125 26.4084249,12.1734344 25.5292943,12.1708594 C23.0865781,12.1966101 18.1233784,12.1801296 15.5333679,12.1801296 C14.3220526,12.1801296 13.9028303,12.5792663 13.9028303,13.8328128 L13.8976802,23.7798128 C13.8976802,24.5662407 14.5182733,25.5272588 14.6042808,25.6132663 L26.5047327,37.3926897 C27.2020631,38.09002 28.333036,38.09002 29.0308814,37.3926897 L39.134961,27.2963353 C39.8322913,26.599005 39.8322913,25.4690621 39.134961,24.7717317 L27.3462673,12.8805501 Z M19.3130631,19.3733443 C18.317539,19.3733443 17.5105105,18.5663158 17.5105105,17.5707918 C17.5105105,16.5752678 18.317539,15.7682392 19.3130631,15.7682392 C20.3085871,15.7682392 21.1156156,16.5752678 21.1156156,17.5707918 C21.1156156,18.5663158 20.3085871,19.3733443 19.3130631,19.3733443 L19.3130631,19.3733443 Z" id="Shape" fill="#F58321"></path>
                <path d="M29.0308814,37.3926897 C28.333036,38.09002 27.2020631,38.09002 26.5047327,37.3926897 L14.6042808,25.6132663 C14.5182733,25.5272588 13.8976802,24.5667558 13.8976802,23.7798128 L13.9028303,13.8328128 C13.9028303,13.4130756 13.9553619,13.0963413 14.063515,12.8511942 C13.5809459,13.0628654 13.3878153,13.5129885 13.3878153,14.3478278 L13.3826652,24.2948278 C13.3826652,25.0812558 14.0032583,26.0422738 14.0892658,26.1282813 L25.9897177,37.9077047 C26.687048,38.605035 27.818021,38.605035 28.5158664,37.9077047 L38.6199459,27.8113504 L38.622006,27.8092903 L29.0308814,37.3926897 Z M13.9002553,18.8583293 L18.0538514,18.8583293 C17.902952,18.711035 17.7819234,18.5359299 17.6902508,18.3433143 L13.9007703,18.3433143 L13.9002553,18.8583293 L13.9002553,18.8583293 Z" id="Shape" fill="#F5D2B3"></path>
                <path d="M19.3130631,14.7382092 C17.7484474,14.7382092 16.4804805,16.0061762 16.4804805,17.5707918 C16.4804805,19.1354074 17.7484474,20.4033744 19.3130631,20.4033744 C20.8776787,20.4033744 22.1456456,19.1354074 22.1456456,17.5707918 C22.1456456,16.0061762 20.8776787,14.7382092 19.3130631,14.7382092 L19.3130631,14.7382092 Z M19.3130631,18.8583293 C18.6018273,18.8583293 18.0255255,18.2820275 18.0255255,17.5707918 C18.0255255,16.8595561 18.6018273,16.2832543 19.3130631,16.2832543 C20.0242988,16.2832543 20.6006006,16.8595561 20.6006006,17.5707918 C20.6006006,18.2820275 20.0242988,18.8583293 19.3130631,18.8583293 L19.3130631,18.8583293 Z" id="Shape" fill="#4F3254"></path>
                <path d="M0.751921922,16.7982693 C0.626258258,17.3071041 0.51862012,17.8231491 0.424372372,18.3433143 L20.3374279,18.3433143 C20.5001727,18.127523 20.6006006,17.8617753 20.6006006,17.5707918 C20.6006006,17.2798083 20.5001727,17.0140606 20.3374279,16.7982693 L0.751921922,16.7982693 L0.751921922,16.7982693 Z" id="Shape" fill="#FFFFFF"></path>
                <path d="M39.134961,24.7717317 L27.3462673,12.8805501 C27.2592297,12.7935125 26.4084249,12.1734344 25.5292943,12.1708594 C23.0865781,12.1966101 18.1233784,12.1801296 15.5333679,12.1801296 C14.7278844,12.1801296 14.2777613,12.36399 14.063515,12.8511942 C14.3050571,12.7451011 14.6140661,12.6951446 15.0183529,12.6951446 C17.6083634,12.6951446 22.5720781,12.7116251 25.0142793,12.6858744 C25.8934099,12.6884494 26.7442147,13.3080125 26.8312523,13.3955651 L38.6199459,25.2867467 C39.3167613,25.9835621 39.3172763,27.1114449 38.622006,27.8092903 L39.134961,27.2963353 C39.8322913,26.599005 39.8322913,25.4690621 39.134961,24.7717317 L39.134961,24.7717317 Z M13.3857553,18.8583293 L13.9002553,18.8583293 L13.9007703,18.3433143 L13.3862703,18.3433143 L13.3857553,18.8583293 L13.3857553,18.8583293 Z" id="Shape" fill="#4F3254"></path>
            </g>
        </g>
    </g>
</svg>